<?xml version="1.0" encoding="UTF-8"?>
<svg id="saiga_logo" xmlns="http://www.w3.org/2000/svg" viewBox="0 0 350 350">
  <rect width="350" height="350" style="fill: #fff;"/>
  <g>
    <g id="zambraccio_dx">
      <g>
        <path d="M234.98,242.59c-.17-.43-.35-.86-.43-1.31-.11-.55-.08-1.12-.14-1.68-.17-1.41-.92-2.67-1.69-3.86-1.55-2.37-3.29-4.63-5.18-6.75-.16-.18-.33-.38-.31-.61,.02-.24,.22-.42,.41-.58,1.28-1.03,2.57-2.08,4.07-2.77s3.23-.98,4.79-.47c1.67,.55,2.91,1.95,3.89,3.4,2.42,3.62,3.67,8.01,3.52,12.36-.01,.38-.04,.77-.19,1.12-.17,.38-.47,.69-.77,.98-1.15,1.07-3.61,3.23-5.28,3.25-1.92,.02-1.98-1.37-2.68-3.08Z" style="fill: #4c2b17;"/>
        <path d="M238.19,234.01l5.18,.88c-.18-.77-.42-1.63-.77-2.56-.34-.9-.7-1.69-1.06-2.36-1.12,1.35-2.23,2.7-3.35,4.04Z" style="fill: #fbf2e1;"/>
      </g>
      <path d="M239.18,245.75c-1.47-3.45-2.95-6.9-4.42-10.36-1.33-3.57-2.66-7.13-4-10.7-1.84,1.32-4.32,3.41-6.8,6.59-1.23,1.57-2.21,3.11-2.99,4.48-1.17,.45-2.49,1.08-3.91,1.96-3.84,2.38-6.62,5.53-8.35,7.79l-1.02,10.72-.54,.89,.43,.26-.06,.65,.81-.2,7,4.23c2.25-.95,5.57-2.74,8.97-6.22,1.26-1.29,2.31-2.58,3.18-3.78,1.23-.26,2.66-.68,4.24-1.37,3.19-1.4,5.72-3.36,7.46-4.95Z" style="fill: #edc492; stroke: #4c2b17; stroke-miterlimit: 10; stroke-width: .75px;"/>
    
      <animateTransform id="zambraccio_dx_rotate_1" attributeName="transform" attributeType="XML" type="rotate"
      begin="0;zambraccio_dx_rotate_2.end"  from="0 207.1451 262.2653" to="+17 207.1451 262.2653" dur="3s"/>
      <animateTransform id="zambraccio_dx_rotate_2" attributeName="transform" attributeType="XML" type="rotate"
      begin="zambraccio_dx_rotate_1.end"  from="+17 207.1451 262.2653" to="0 207.1451 262.2653" dur="3s"/>
    </g>
    <g id="zambraccio_sx">
      <g>
        <path d="M113.07,242.79c.17-.43,.35-.86,.43-1.31,.11-.55,.08-1.12,.14-1.68,.17-1.41,.92-2.67,1.69-3.86,1.55-2.37,3.29-4.63,5.18-6.75,.16-.18,.33-.38,.31-.61-.02-.24-.22-.42-.41-.58-1.28-1.03-2.57-2.08-4.07-2.77s-3.23-.98-4.79-.47c-1.67,.55-2.91,1.95-3.89,3.4-2.42,3.62-3.67,8.01-3.52,12.36,.01,.38,.04,.77,.19,1.12,.17,.38,.47,.69,.77,.98,1.15,1.07,3.61,3.23,5.28,3.25,1.92,.02,1.98-1.37,2.68-3.08Z" style="fill: #4c2b17;"/>
        <path d="M109.86,234.2l-5.18,.88c.18-.77,.42-1.63,.77-2.56,.34-.9,.7-1.69,1.06-2.36,1.12,1.35,2.23,2.7,3.35,4.04Z" style="fill: #fbf2e1;"/>
      </g>
      <path d="M108.87,245.94c1.47-3.45,2.95-6.9,4.42-10.36,1.33-3.57,2.66-7.13,4-10.7,1.84,1.32,4.32,3.41,6.8,6.59,1.23,1.57,2.21,3.11,2.99,4.48,1.17,.45,2.49,1.08,3.91,1.96,3.84,2.38,6.62,5.53,8.35,7.79l1.02,10.72,.54,.89-.43,.26,.06,.65-.81-.2-7,4.23c-2.25-.95-5.57-2.74-8.97-6.22-1.26-1.29-2.31-2.58-3.18-3.78-1.23-.26-2.66-.68-4.24-1.37-3.19-1.4-5.72-3.36-7.46-4.95Z" style="fill: #edc492; stroke: #4c2b17; stroke-miterlimit: 10; stroke-width: .75px;"/>
    
      <animateTransform id="zambraccio_sx_rotate_1" attributeName="transform" attributeType="XML" type="rotate"
      begin="0;zambraccio_sx_rotate_2.end"  from="0 140.9047 262.2653" to="-17 140.9047 262.2653" dur="3s"/>
      <animateTransform id="zambraccio_sx_rotate_2" attributeName="transform" attributeType="XML" type="rotate"
      begin="zambraccio_sx_rotate_1.end"  from="-17 140.9047 262.2653" to="0 140.9047 262.2653" dur="3s"/>
    </g>
    <g>
      <g>
        <path d="M148.15,326.66c.39,.1,.78,.19,1.14,.38,.44,.22,.84,.57,1.26,.82,1.08,.65,2.34,.74,3.56,.76,2.44,.04,4.88-.12,7.29-.5,.2-.03,.43-.06,.59,.09,.16,.15,.2,.42,.21,.66,.12,1.64,.24,3.3,0,4.92s-.86,3.23-1.98,4.23c-1.2,1.07-2.79,1.32-4.29,1.31-3.74-.02-7.47-1.45-10.49-4.02-.26-.22-.53-.46-.71-.79-.19-.35-.27-.78-.32-1.19-.21-1.55-.56-4.8,.23-6.19,.91-1.6,1.93-.88,3.48-.49Z" style="fill: #4c2b17;"/>
        <path d="M152.7,334.13l-3.12,3.79c.63,.28,1.36,.57,2.19,.8,.8,.23,1.54,.36,2.19,.45-.42-1.68-.84-3.36-1.26-5.04Z" style="fill: #fbf2e1;"/>
      </g>
      <g>
        <path d="M201.03,326.66c-.39,.1-.78,.19-1.14,.38-.44,.22-.84,.57-1.26,.82-1.08,.65-2.34,.74-3.56,.76-2.44,.04-4.88-.12-7.29-.5-.2-.03-.43-.06-.59,.09-.16,.15-.2,.42-.21,.66-.12,1.64-.24,3.3,0,4.92s.86,3.23,1.98,4.23c1.2,1.07,2.79,1.32,4.29,1.31,3.74-.02,7.47-1.45,10.49-4.02,.26-.22,.53-.46,.71-.79,.19-.35,.27-.78,.32-1.19,.21-1.55,.56-4.8-.23-6.19-.91-1.6-1.93-.88-3.48-.49Z" style="fill: #4c2b17;"/>
        <path d="M196.47,334.13l3.12,3.79c-.63,.28-1.36,.57-2.19,.8-.8,.23-1.54,.36-2.19,.45,.42-1.68,.84-3.36,1.26-5.04Z" style="fill: #fbf2e1;"/>
      </g>
      <path d="M214.48,255.96c-2.61-11.3-5.94-20.86-9.11-28.5h-61.21c-3.17,7.64-6.5,17.2-9.11,28.5-1.15,5-2.04,9.78-2.71,14.29-1.41,9.4-.84,19.07,1.74,28.13,.8,2.8,1.72,5.7,2.79,8.7,2.88,8.03,6.13,14.71,9.11,20.02,5.46,1.41,10.93,2.83,16.39,4.24,.57-2.46,1.09-5.96,.81-10.13-.14-2.06-.45-3.88-.81-5.42,.64-1.33,1.29-2.9,1.82-4.71,1.45-4.9,1.45-9.32,1.21-12.25h18.71c-.24,2.93-.24,7.34,1.21,12.25,.54,1.81,1.18,3.38,1.82,4.71-.36,1.54-.67,3.36-.81,5.42-.28,4.16,.24,7.67,.81,10.13,5.46-1.41,10.93-2.83,16.39-4.24,2.98-5.31,6.23-11.99,9.11-20.02,1.07-3,2-5.9,2.79-8.7,2.58-9.06,3.15-18.72,1.74-28.13-.67-4.5-1.56-9.29-2.71-14.29Z" style="fill: #edc492; stroke: #4c2b17; stroke-miterlimit: 10; stroke-width: .75px;"/>
    </g>
    <g id="orecchio_dx">
      <path d="M224.71,88.18c2.82-2.43,6.12-4.22,9.4-5.99,5.71-3.1,11.71-6.27,18.2-6.37,.81-.01,1.71,.06,2.3,.62,.56,.53,.69,1.35,.8,2.11,1.53,11.47,1.84,23.6-2.99,34.11-5.66,12.31-18.49,21-32.03,21.68,.22-3.51-1.65-6.77-3.46-9.79-1.74-2.91-4.48-5.96-4.53-9.35s1.27-7.1,2.19-10.17c1.91-6.33,5.03-12.47,10.12-16.83Z" style="fill: #edc492; stroke: #4c2b17; stroke-miterlimit: 10; stroke-width: .75px;"/>
      <path d="M235.35,97.91c3.07-2.65,6.52-4.84,9.52-7.56,3.01-2.72,5.64-6.11,6.41-10.09,1.95,5.5,2.61,11.46,1.91,17.26-1.29,10.67-7.24,20.56-15.65,27.25-3.43,2.73-8.13,5.8-12.67,5.99-4.63,.2-3.12-6.4-2.59-9.76,1.4-8.91,6.25-17.22,13.06-23.09Z" style="fill: #fff;"/>
      <path d="M231.54,107.98c-.52,.39-1.14,.79-1.25,1.43,.34,.18,.79,.08,1.03-.22,.19,1.57-.35,3.21-1.42,4.36-.36,.38-.78,.73-1,1.2-.19,.4-.22,.84-.28,1.28-.19,1.22-.73,2.39-1.53,3.33,2.13-1.11,4.14-2.44,5.98-3.98,.25,1.09-.28,2.21-.86,3.16-2.43,3.98-6.13,7.22-10.39,9.13-.02-.13-.1-.36-.08-.63-.69-5.09,.95-9.36,2.62-13.64,.91-2.33,1.77-3.94,2.17-4.74,.83-1.69,1.85-3.29,3.02-4.77,.72-.9,2.68-3.78,3.96-3.75,1.59,.04,.94,3,.66,3.97-.45,1.51-1.36,2.9-2.63,3.85Z" style="fill: #4c2b17;"/>
      
      <animateTransform id="orecchio_dx_rotate_1" attributeName="transform" attributeType="XML" type="rotate"
      begin="0;orecchio_dx_rotate_3.end"  from="0 212.3933 134.3207" to="7 212.3933 134.3207" dur="7s"/>
      <animateTransform id="orecchio_dx_rotate_middle" attributeName="transform" attributeType="XML" type="rotate"
      begin="orecchio_dx_rotate_1.end"  values="7 212.3933 134.3207" dur="7s"/>
      <animateTransform id="orecchio_dx_rotate_3" attributeName="transform" attributeType="XML" type="rotate"
      begin="orecchio_dx_rotate_middle.end"  from="7 212.3933 134.3207" to="0 212.3933 134.3207" dur="7s"/>
    </g>
    <g id="orecchio_sx">
      <path d="M125.29,88.18c-2.82-2.43-6.12-4.22-9.4-5.99-5.71-3.1-11.71-6.27-18.2-6.37-.81-.01-1.71,.06-2.3,.62-.56,.53-.69,1.35-.8,2.11-1.53,11.47-1.84,23.6,2.99,34.11,5.66,12.31,18.49,21,32.03,21.68-.22-3.51,1.65-6.77,3.46-9.79,1.74-2.91,4.48-5.96,4.53-9.35s-1.27-7.1-2.19-10.17c-1.91-6.33-5.03-12.47-10.12-16.83Z" style="fill: #edc492; stroke: #4c2b17; stroke-miterlimit: 10; stroke-width: .75px;"/>      
      <path d="M114.65,97.91c-3.07-2.65-6.52-4.84-9.52-7.56s-5.64-6.11-6.41-10.09c-1.95,5.5-2.61,11.46-1.91,17.26,1.29,10.67,7.24,20.56,15.65,27.25,3.43,2.73,8.13,5.8,12.67,5.99,4.63,.2,3.12-6.4,2.59-9.76-1.4-8.91-6.25-17.22-13.06-23.09Z" style="fill: #fff;"/>
      <path d="M118.46,107.98c.52,.39,1.14,.79,1.25,1.43-.34,.18-.79,.08-1.03-.22-.19,1.57,.35,3.21,1.42,4.36,.36,.38,.78,.73,1,1.2,.19,.4,.22,.84,.28,1.28,.19,1.22,.73,2.39,1.53,3.33-2.13-1.11-4.14-2.44-5.98-3.98-.25,1.09,.28,2.21,.86,3.16,2.43,3.98,6.13,7.22,10.39,9.13,.02-.13,.1-.36,.08-.63,.69-5.09-.95-9.36-2.62-13.64-.91-2.33-1.77-3.94-2.17-4.74-.83-1.69-1.85-3.29-3.02-4.77-.72-.9-2.68-3.78-3.96-3.75-1.59,.04-.94,3-.66,3.97,.45,1.51,1.36,2.9,2.63,3.85Z" style="fill: #4c2b17;"/>
      
      <animateTransform id="orecchio_sx_rotate_1" attributeName="transform" attributeType="XML" type="rotate"
      begin="0;orecchio_sx_rotate_3.end"  from="0 137.6067 134.3207" to="-7 137.6067 134.3207" dur="7s"/>
      <animateTransform id="orecchio_sx_rotate_middle" attributeName="transform" attributeType="XML" type="rotate"
      begin="orecchio_sx_rotate_1.end"  values="-7 137.6067 134.3207" dur="7s"/>
      <animateTransform id="orecchio_sx_rotate_3" attributeName="transform" attributeType="XML" type="rotate"
      begin="orecchio_sx_rotate_middle.end"  from="-7 137.6067 134.3207" to="0 137.6067 134.3207" dur="7s"/>
    </g>
    <path d="M213.28,167.36c.62-1.48,1.55-2.47,4.65-8.07,1.04-1.88,1.79-3.31,1.86-3.45,1.06-2.09,3.05-7.46,1.91-21.39-.54-3.93-1.45-8.46-2.95-13.38-.41-1.35-.84-2.63-1.27-3.82-1.45-4.06-5.03-7-9.31-7.53-2.16-.27-4.41-.48-6.75-.63-10.37-.64-19.44,.28-26.74,1.63-7.3-1.34-16.38-2.27-26.74-1.63-2.34,.14-4.59,.36-6.75,.63-4.28,.53-7.86,3.47-9.31,7.53-.43,1.19-.85,2.47-1.27,3.82-1.5,4.92-2.41,9.45-2.95,13.38-1.14,13.92,.86,19.3,1.91,21.39,.07,.15,.82,1.57,1.86,3.45,3.1,5.6,4.03,6.59,4.65,8.07,1.69,4.02-.53,7.79-2.77,13.84-1.64,4.42-3.61,10.93-4.71,19.55v2.65c0,7.57,1.88,15.05,5.6,21.64,1.2,2.13,2.62,4.34,4.3,6.57,5.56,7.39,11.77,12.11,16.31,14.95,1.35,.84,3.13,.59,4.14-.64,.02-.02,.02-.03,.03-.03l15.45,2.04h.5l15.45-2.04s.01,.02,.03,.03c1.01,1.23,2.79,1.49,4.15,.64,4.54-2.84,10.75-7.55,16.3-14.94,1.67-2.23,3.09-4.44,4.3-6.57,3.72-6.59,5.6-14.07,5.6-21.64v-2.65c-1.1-8.62-3.08-15.13-4.71-19.55-2.24-6.05-4.46-9.82-2.77-13.84Z" style="fill: #edc492; stroke: #4c2b17; stroke-miterlimit: 10; stroke-width: .75px;"/>
    <g>
      <path d="M205.41,131.48c-1.19-7.19-13.92-21.41-30.82-21.37-16.67,.04-29.81,13.96-30.61,21.37-.44,4.03,.34,8.22,.34,8.22,.56,3.04,1.48,5.23,1.93,6.28,4.71,10.98,9.62,16.89,11.73,25.48,.96,3.89,1.6,7.9,1.51,11.92-.29,12.44-7.59,23.97-6.97,36.39,.34,6.89,3.09,13.33,5.03,19.91,1.94,6.58,3.02,13.99,.15,20.18-.62,1.33-1.43,2.72-1.16,4.18,.25,1.33,1.35,2.29,2.47,2.95,3.97,2.32,9.11,2.06,12.95-.46v.11h5.65c3.82,2.41,8.87,2.64,12.78,.35,1.12-.66,2.22-1.61,2.47-2.95,.27-1.45-.54-2.85-1.16-4.18-2.87-6.19-1.79-13.6,.15-20.18,1.94-6.58,4.69-13.03,5.03-19.91,.61-12.42-6.68-23.96-6.97-36.39-.09-4.02,.55-8.03,1.51-11.92,1.33-5.42,3.78-9.7,11.73-25.48,.58-1.14,1.72-3.46,2.28-6.72,0,0,.65-3.81,0-7.78Z" style="fill: #fbf2e1;"/>
      <ellipse cx="182.55" cy="262.12" rx="1.68" ry="4.55" transform="translate(-132.25 316.26) rotate(-64.9)" style="fill: #3d1613;"/>
      <ellipse cx="166.67" cy="262.12" rx="4.55" ry="1.68" transform="translate(-95.44 95.43) rotate(-25.1)" style="fill: #3d1613;"/>
    </g>
    <g id="occhio_sx">
      <ellipse cx="147.26" cy="178.42" rx="9.6" ry="8.75" style="fill: #fff;"/>
      <ellipse cx="147.57" cy="177.89" rx="6.14" ry="6.73" style="fill: #bd793c;"/>
      <g>
        <ellipse cx="147.43" cy="177.58" rx="3.87" ry="4.55" style="fill: #3d1613;"/>
        <circle cx="144.57" cy="175.73" r="2.69" style="fill: #fff;"/>
      </g>
    </g>
    <g id="occhio_dx">
      <ellipse cx="201.78" cy="178.42" rx="9.6" ry="8.75" style="fill: #fff;"/>
      <ellipse cx="202.1" cy="177.89" rx="6.14" ry="6.73" style="fill: #bd793c;"/>
      <g>
        <ellipse cx="201.95" cy="177.58" rx="3.87" ry="4.55" style="fill: #3d1613;"/>
        <circle cx="199.09" cy="175.73" r="2.69" style="fill: #fff;"/>
      </g>
    </g>
    <path d="M176.07,224.55c-.13,11.39,.76,15.36,.76,15.36-.4,4.73-1,10.86-1.89,18.02-.9-7.16-1.49-13.29-1.89-18.02,0,0,1.22-3.96,1.08-15.36-.02-1.88-1.59-5.06-.55-8.2,.13-.38,.26-.73,.39-1.05,.48-1.16,1.45-1.16,1.93,0,.13,.32,.27,.67,.39,1.05,1.05,3.14-.2,6.32-.23,8.2Z" style="fill: #874124;"/>
    <g>
      <path d="M159.48,183.38c-.29,12.44-7.59,23.97-6.97,36.39" style="fill: none; stroke: #622511; stroke-linecap: round; stroke-miterlimit: 10; stroke-width: .75px;"/>
      <path d="M196.87,219.77c.61-12.42-6.68-23.96-6.97-36.39" style="fill: none; stroke: #622511; stroke-linecap: round; stroke-miterlimit: 10; stroke-width: .75px;"/>
      <path d="M152.51,219.77c.34,6.89,3.09,13.33,5.03,19.91,1.94,6.58,3.02,13.99,.15,20.18-.62,1.33-1.43,2.72-1.16,4.18,.25,1.33,1.35,2.29,2.47,2.95,3.97,2.32,9.11,2.06,12.95-.46v.11h5.65c3.82,2.41,8.87,2.64,12.78,.35,1.12-.66,2.22-1.61,2.47-2.95,.27-1.45-.54-2.85-1.16-4.18-2.87-6.19-1.79-13.6,.15-20.18,1.94-6.58,4.69-13.03,5.03-19.91" style="fill: none; stroke: #622511; stroke-linecap: round; stroke-miterlimit: 10; stroke-width: .75px;"/>
    </g>
    <path id="sopracciglio_sx" d="M142.14,154.77c-3.59,0-6.69,2.65-8.18,6.49h1.31c1.67-2.44,4.13-3.98,6.86-3.98s5.19,1.54,6.86,3.98h1.31c-1.49-3.85-4.59-6.49-8.18-6.49Z" style="fill: #874124;">
      <animateTransform
      id="sopracciglia_sx_move"
      attributeType="xml"
      attributeName="transform"
      begin="7; sopracciglia_sx_freeze.end"
      type="translate"
      dur="4s"
      values="0,0; 0,-7; 0,0;"
    />
    <animateTransform
    id="sopracciglia_sx_freeze"
    attributeType="xml"
    attributeName="transform"
    begin="sopracciglia_sx_move.end"
    type="translate"
    dur="7s"
    values="0,0"
  />
    </path>
    <path id="sopracciglio_dx" d="M206.78,154.77c-3.59,0-6.69,2.65-8.18,6.49h1.31c1.67-2.44,4.13-3.98,6.86-3.98s5.19,1.54,6.86,3.98h1.31c-1.49-3.85-4.59-6.49-8.18-6.49Z" style="fill: #874124;">
      <animateTransform
      id="sopracciglia_dx_move"
      attributeType="xml"
      attributeName="transform"
      begin="7;sopracciglia_dx_freeze.end"
      type="translate"
      dur="4s"
      values="0,0; 0,-7; 0,0;"
    />
    <animateTransform
    id="sopracciglia_dx_freeze"
    attributeType="xml"
    attributeName="transform"
    begin="sopracciglia_dx_move.end"
    type="translate"
    dur="7s"
    values="0,0"
  />
    </path>
    <path d="M153.64,295.26c4.02,1.57,22.51,8.28,42.61-.42" style="fill: none; stroke: #874124; stroke-miterlimit: 10;"/>
    <g id="corno_sx">
      <g>
        <path d="M148.4,49.26c.12,3.71-.28,7.42-.53,11.13-.66,9.68-.29,19.44,1.1,29.04,.44,3.05,.99,6.11,2.2,8.94,.73,1.71,1.69,3.31,2.38,5.03,1.18,2.96,1.53,6.14,1.6,9.35,.06,2.64-2.14,4.8-4.78,4.61-2.2-.15-4.38-.6-6.46-1.33-.96-.34-1.92-.75-2.66-1.45-1.05-.99-1.51-2.44-1.94-3.82-2.17-6.97-4.35-13.99-5.2-21.24-1.34-11.43,.65-22.97,3.07-34.22,.5-2.32,1.02-4.63,1.28-6.99,.97-8.72-1.6-17.41-2.38-26.15-.22-2.49-.29-5.08,.66-7.39,.61-1.49,1.74-2.89,3.2-3.62,2.2-1.11,2.33-.16,2.33,1.82,0,4.06,.45,7.99,1.3,11.97,1.72,8.08,4.56,16,4.84,24.32Z" style="fill: #f9c29e; stroke: #683c11; stroke-miterlimit: 10;"/>
        <path d="M136.3,24.24c.06,.48,.47,.85,.96,.85h6.34c-.01-.05-.02-.1-.03-.16-.85-3.98-1.3-7.91-1.3-11.97,0-1.99-.13-2.93-2.33-1.82-1.45,.73-2.59,2.14-3.2,3.62-.95,2.31-.88,4.9-.66,7.39,.06,.7,.14,1.39,.22,2.09" style="fill: #432918; stroke: #683c11; stroke-miterlimit: 10;"/>
      </g>
      <g>
        <ellipse cx="140.89" cy="68.17" rx="6.97" ry=".62" transform="translate(-11.49 32.41) rotate(-12.61)" style="fill: #683c11;"/>
        <path d="M147.69,66.65c-.02-.07-1.37,.27-6.82,1.49-5.47,1.22-6.81,1.48-6.79,1.55,.02,.11,3.32-.27,7-1.09,3.57-.8,6.64-1.83,6.61-1.94Z" style="fill: #edc492;"/>
      </g>
      <g>
        <ellipse cx="143.19" cy="52.85" rx="6.28" ry=".56" transform="translate(-6.42 22.63) rotate(-8.84)" style="fill: #683c11;"/>
        <path d="M149.39,51.89c-.01-.07-1.25,.16-6.21,.93-4.99,.77-6.2,.92-6.19,.99,.01,.1,3-.04,6.35-.57,3.25-.51,6.08-1.25,6.06-1.35Z" style="fill: #edc492;"/>
      </g>
      <g>
        <ellipse cx="142.32" cy="37.54" rx="4.56" ry=".4" transform="translate(-2.2 9.67) rotate(-3.86)" style="fill: #683c11;"/>
        <path d="M146.87,37.23s-.91,.04-4.55,.28c-3.66,.24-4.54,.28-4.54,.32,0,.08,2.17,.16,4.63-.01,2.38-.16,4.47-.52,4.46-.6Z" style="fill: #edc492;"/>
      </g>
      <g style="opacity: .47;">
        <path d="M151.17,98.37c-1.21-2.83-1.76-5.9-2.2-8.94-.36-2.46-.64-4.94-.86-7.42l-14.36,3c.07,1.5,.19,3.01,.36,4.51,.85,7.25,3.03,14.27,5.2,21.24,.43,1.38,.9,2.82,1.94,3.82,.74,.7,1.7,1.11,2.66,1.45,2.08,.73,4.26,1.18,6.46,1.33,2.64,.18,4.84-1.97,4.78-4.61-.07-3.21-.42-6.39-1.6-9.35-.69-1.72-1.65-3.33-2.38-5.03Z" style="fill: #432918; stroke: #683c11; stroke-miterlimit: 10;"/>
      </g>
      <g>
        <ellipse cx="140.89" cy="83.49" rx="7.75" ry=".69" transform="translate(-14.83 32.78) rotate(-12.61)" style="fill: #683c11;"/>
        <path d="M148.45,81.8c-.02-.08-1.52,.3-7.57,1.65-6.08,1.36-7.56,1.64-7.55,1.72,.02,.13,3.69-.3,7.77-1.22,3.96-.89,7.38-2.03,7.35-2.16Z" style="fill: #edc492;"/>
      </g>
      <g>
        <ellipse cx="143.6" cy="98.8" rx="7.75" ry=".69" transform="translate(-18.11 33.75) rotate(-12.61)" style="fill: #683c11;"/>
        <path d="M151.16,97.12c-.02-.08-1.52,.3-7.57,1.65-6.08,1.36-7.56,1.64-7.55,1.72,.02,.13,3.69-.3,7.77-1.22,3.96-.89,7.38-2.03,7.35-2.16Z" style="fill: #edc492;"/>
      </g>
    </g>
    <g id="corno_dx">
      <g>
        <path d="M200.98,49.26c-.12,3.71,.28,7.42,.53,11.13,.66,9.68,.29,19.44-1.1,29.04-.44,3.05-.99,6.11-2.2,8.94-.73,1.71-1.69,3.31-2.38,5.03-1.18,2.96-1.53,6.14-1.6,9.35-.06,2.64,2.14,4.8,4.78,4.61,2.2-.15,4.38-.6,6.46-1.33,.96-.34,1.92-.75,2.66-1.45,1.05-.99,1.51-2.44,1.94-3.82,2.17-6.97,4.35-13.99,5.2-21.24,1.34-11.43-.65-22.97-3.07-34.22-.5-2.32-1.02-4.63-1.28-6.99-.97-8.72,1.6-17.41,2.38-26.15,.22-2.49,.29-5.08-.66-7.39-.61-1.49-1.74-2.89-3.2-3.62-2.2-1.11-2.33-.16-2.33,1.82,0,4.06-.45,7.99-1.3,11.97-1.72,8.08-4.56,16-4.84,24.32Z" style="fill: #f9c29e; stroke: #683c11; stroke-miterlimit: 10;"/>
        <path d="M213.08,24.24c-.06,.48-.47,.85-.96,.85h-6.34c.01-.05,.02-.1,.03-.16,.85-3.98,1.3-7.91,1.3-11.97,0-1.99,.13-2.93,2.33-1.82,1.45,.73,2.59,2.14,3.2,3.62,.95,2.31,.88,4.9,.66,7.39-.06,.7-.14,1.39-.22,2.09" style="fill: #432918; stroke: #683c11; stroke-miterlimit: 10;"/>
      </g>
      <g>
        <ellipse cx="208.49" cy="68.17" rx=".62" ry="6.97" transform="translate(96.44 256.74) rotate(-77.39)" style="fill: #683c11;"/>
        <path d="M201.69,66.65c.02-.07,1.37,.27,6.82,1.49,5.47,1.22,6.81,1.48,6.79,1.55-.02,.11-3.32-.27-7-1.09-3.57-.8-6.64-1.83-6.61-1.94Z" style="fill: #edc492;"/>
      </g>
      <g>
        <ellipse cx="206.19" cy="52.85" rx=".56" ry="6.28" transform="translate(122.29 248.48) rotate(-81.16)" style="fill: #683c11;"/>
        <path d="M199.99,51.89c.01-.07,1.25,.16,6.21,.93,4.99,.77,6.2,.92,6.19,.99-.01,.1-3-.04-6.35-.57-3.25-.51-6.08-1.25-6.06-1.35Z" style="fill: #edc492;"/>
      </g>
      <g>
        <ellipse cx="207.06" cy="37.54" rx=".4" ry="4.56" transform="translate(155.66 241.6) rotate(-86.14)" style="fill: #683c11;"/>
        <path d="M202.51,37.23s.91,.04,4.55,.28c3.66,.24,4.54,.28,4.54,.32,0,.08-2.17,.16-4.63-.01-2.38-.16-4.47-.52-4.46-.6Z" style="fill: #edc492;"/>
      </g>
      <g style="opacity: .47;">
        <path d="M198.21,98.37c1.21-2.83,1.76-5.9,2.2-8.94,.36-2.46,.64-4.94,.86-7.42l14.36,3c-.07,1.5-.19,3.01-.36,4.51-.85,7.25-3.03,14.27-5.2,21.24-.43,1.38-.9,2.82-1.94,3.82-.74,.7-1.7,1.11-2.66,1.45-2.08,.73-4.26,1.18-6.46,1.33-2.64,.18-4.84-1.97-4.78-4.61,.07-3.21,.42-6.39,1.6-9.35,.69-1.72,1.65-3.33,2.38-5.03Z" style="fill: #432918; stroke: #683c11; stroke-miterlimit: 10;"/>
      </g>
      <g>
        <ellipse cx="208.49" cy="83.49" rx=".69" ry="7.75" transform="translate(81.49 268.72) rotate(-77.39)" style="fill: #683c11;"/>
        <path d="M200.93,81.8c.02-.08,1.52,.3,7.57,1.65,6.08,1.36,7.56,1.64,7.55,1.72-.02,.13-3.69-.3-7.77-1.22-3.96-.89-7.38-2.03-7.35-2.16Z" style="fill: #edc492;"/>
      </g>
      <g>
        <ellipse cx="205.78" cy="98.8" rx=".69" ry="7.75" transform="translate(64.42 278.04) rotate(-77.39)" style="fill: #683c11;"/>
        <path d="M198.22,97.12c.02-.08,1.52,.3,7.57,1.65,6.08,1.36,7.56,1.64,7.55,1.72-.02,.13-3.69-.3-7.77-1.22-3.96-.89-7.38-2.03-7.35-2.16Z" style="fill: #edc492;"/>
      </g>
    </g>
  </g>
</svg>